<svg width="71" height="70" viewBox="0 0 71 70" fill="none" xmlns="http://www.w3.org/2000/svg">
<path fill-rule="evenodd" clip-rule="evenodd" d="M34.9999 1.1547L5.68896 18.0774V51.9226L34.9999 68.8453L64.3107 51.9226V18.0774L34.9999 1.1547ZM65.3107 17.5L34.9999 0L4.68896 17.5V52.5L34.9999 70L65.3107 52.5V17.5Z" fill="#0E0E0E"/>
<path fill-rule="evenodd" clip-rule="evenodd" d="M1.65275 35.4976L18.5754 64.8084H52.4207L69.3433 35.4976L52.4207 6.18666H18.5754L1.65275 35.4976ZM17.998 5.18666L0.498047 35.4976L17.998 65.8084H52.998L70.498 35.4976L52.998 5.18666H17.998Z" fill="#0E0E0E"/>
<path fill-rule="evenodd" clip-rule="evenodd" d="M37.709 25.7427C38.5019 25.4174 39.3516 25.25 40.2095 25.25C41.0674 25.25 41.917 25.4174 42.71 25.7427C43.5029 26.068 44.2239 26.5451 44.8314 27.1469L44.3036 27.6797L44.8312 27.1467C44.8313 27.1468 44.8313 27.1468 44.8314 27.1469C45.4391 27.7485 45.9216 28.463 46.251 29.2501C46.5804 30.0372 46.75 30.8812 46.75 31.7336C46.75 32.5861 46.5804 33.4301 46.251 34.2172C45.9216 35.0043 45.4391 35.7189 44.8313 36.3205L44.3036 35.7875L44.8312 36.3206L35.5274 45.5329C35.2351 45.8224 34.7643 45.8224 34.472 45.5329L25.1681 36.3205C23.9408 35.1053 23.25 33.4555 23.25 31.7336C23.25 30.0118 23.9408 28.362 25.1681 27.1468C26.3952 25.9318 28.0578 25.2506 29.79 25.2506C31.5221 25.2506 33.1848 25.9318 34.4118 27.1468L34.9997 27.7289L34.472 28.2515L34.9997 28.7844L35.5274 28.2515L34.9997 27.7289L35.5875 27.1469L36.1153 27.6797L35.5876 27.1468C36.1951 26.545 36.916 26.068 37.709 25.7427ZM40.2095 26.75C39.5466 26.75 38.8903 26.8793 38.2783 27.1304C37.6663 27.3815 37.1108 27.7494 36.6432 28.2126L36.643 28.2127L35.5274 29.3173C35.2351 29.6068 34.7643 29.6068 34.472 29.3173L33.3564 28.2127C32.4118 27.2773 31.129 26.7506 29.79 26.7506C28.4509 26.7506 27.1682 27.2773 26.2235 28.2127C25.2792 29.1478 24.75 30.4144 24.75 31.7336C24.75 33.0528 25.2792 34.3195 26.2235 35.2546L34.9997 43.9445L43.7759 35.2546L43.776 35.2545C44.2438 34.7915 44.6145 34.2422 44.8672 33.6382C45.12 33.0342 45.25 32.387 45.25 31.7336C45.25 31.0803 45.12 30.4331 44.8672 29.8291C44.6145 29.2251 44.2438 28.6758 43.776 28.2128L43.7758 28.2126C43.3082 27.7494 42.7526 27.3815 42.1406 27.1304C41.5286 26.8793 40.8724 26.75 40.2095 26.75Z" fill="#0E0E0E"/>
</svg>
