<svg width="71" height="70" viewBox="0 0 71 70" fill="none" xmlns="http://www.w3.org/2000/svg">
<path fill-rule="evenodd" clip-rule="evenodd" d="M34.9999 1.1547L5.68896 18.0774V51.9226L34.9999 68.8453L64.3107 51.9226V18.0774L34.9999 1.1547ZM65.3107 17.5L34.9999 0L4.68896 17.5V52.5L34.9999 70L65.3107 52.5V17.5Z" fill="#0E0E0E"/>
<path fill-rule="evenodd" clip-rule="evenodd" d="M1.65275 35.4976L18.5754 64.8084H52.4207L69.3433 35.4976L52.4207 6.18666H18.5754L1.65275 35.4976ZM17.998 5.18666L0.498047 35.4976L17.998 65.8084H52.998L70.498 35.4976L52.998 5.18666H17.998Z" fill="#0E0E0E"/>
<path fill-rule="evenodd" clip-rule="evenodd" d="M35 23.75C30.9317 23.75 27.75 26.7522 27.75 30.3182C27.75 33.8842 30.9317 36.8864 35 36.8864C36.43 36.8864 37.7583 36.5117 38.8765 35.869C38.9231 35.8334 38.9741 35.8031 39.0289 35.7789C40.9913 34.5877 42.25 32.5727 42.25 30.3182C42.25 26.7522 39.0683 23.75 35 23.75ZM38.7402 37.6144C37.6041 38.1102 36.3354 38.3864 35 38.3864C33.6694 38.3864 32.4 38.1099 31.2613 37.613L30.2442 44.6184L34.6391 42.2062C34.8639 42.0828 35.1361 42.0828 35.3609 42.2062L39.7561 44.6185L38.7402 37.6144ZM29.8571 36.8453C27.6821 35.3889 26.25 33.0274 26.25 30.3182C26.25 25.8008 30.2318 22.25 35 22.25C39.7682 22.25 43.75 25.8008 43.75 30.3182C43.75 33.0212 42.3127 35.3906 40.1445 36.8459L41.4565 45.8923C41.4973 46.1738 41.3754 46.4542 41.1417 46.6163C40.908 46.7784 40.6028 46.7943 40.3534 46.6575L35 43.7192L29.6466 46.6575C29.3972 46.7943 29.0919 46.7784 28.8582 46.6162C28.6245 46.4541 28.5026 46.1737 28.5435 45.8922L29.8571 36.8453Z" fill="#0E0E0E"/>
</svg>
