<svg width="71" height="70" viewBox="0 0 71 70" fill="none" xmlns="http://www.w3.org/2000/svg">
<path fill-rule="evenodd" clip-rule="evenodd" d="M34.9999 1.1547L5.68896 18.0774V51.9226L34.9999 68.8453L64.3107 51.9226V18.0774L34.9999 1.1547ZM65.3107 17.5L34.9999 0L4.68896 17.5V52.5L34.9999 70L65.3107 52.5V17.5Z" fill="#0E0E0E"/>
<path fill-rule="evenodd" clip-rule="evenodd" d="M1.65275 35.4976L18.5754 64.8084H52.4207L69.3433 35.4976L52.4207 6.18666H18.5754L1.65275 35.4976ZM17.998 5.18666L0.498047 35.4976L17.998 65.8084H52.998L70.498 35.4976L52.998 5.18666H17.998Z" fill="#0E0E0E"/>
<path fill-rule="evenodd" clip-rule="evenodd" d="M34.5 24.75C31.9141 24.75 29.4342 25.7772 27.6057 27.6057C25.7772 29.4342 24.75 31.9141 24.75 34.5V36.0833H27.5C28.3178 36.0833 29.102 36.4082 29.6802 36.9864C30.2585 37.5647 30.5833 38.3489 30.5833 39.1667V42.6667C30.5833 43.4844 30.2585 44.2687 29.6802 44.8469C29.102 45.4251 28.3178 45.75 27.5 45.75H26.3333C25.5156 45.75 24.7313 45.4251 24.1531 44.8469C23.5749 44.2687 23.25 43.4844 23.25 42.6667V34.5C23.25 31.5163 24.4353 28.6548 26.545 26.545C28.6548 24.4353 31.5163 23.25 34.5 23.25C37.4837 23.25 40.3452 24.4353 42.455 26.545C44.5647 28.6548 45.75 31.5163 45.75 34.5V42.6667C45.75 43.4844 45.4251 44.2687 44.8469 44.8469C44.2687 45.4251 43.4844 45.75 42.6667 45.75H41.5C40.6822 45.75 39.898 45.4251 39.3198 44.8469C38.7415 44.2687 38.4167 43.4844 38.4167 42.6667V39.1667C38.4167 38.3489 38.7415 37.5647 39.3198 36.9864C39.898 36.4082 40.6822 36.0833 41.5 36.0833H44.25V34.5C44.25 31.9141 43.2228 29.4342 41.3943 27.6057C39.5658 25.7772 37.0859 24.75 34.5 24.75ZM44.25 37.5833H41.5C41.0801 37.5833 40.6773 37.7501 40.3804 38.0471C40.0835 38.344 39.9167 38.7467 39.9167 39.1667V42.6667C39.9167 43.0866 40.0835 43.4893 40.3804 43.7863C40.6773 44.0832 41.0801 44.25 41.5 44.25H42.6667C43.0866 44.25 43.4893 44.0832 43.7863 43.7863C44.0832 43.4893 44.25 43.0866 44.25 42.6667V37.5833ZM24.75 42.6667C24.75 43.0866 24.9168 43.4893 25.2137 43.7863C25.5107 44.0832 25.9134 44.25 26.3333 44.25H27.5C27.9199 44.25 28.3227 44.0832 28.6196 43.7863C28.9165 43.4893 29.0833 43.0866 29.0833 42.6667V39.1667C29.0833 38.7467 28.9165 38.344 28.6196 38.0471C28.3227 37.7501 27.9199 37.5833 27.5 37.5833H24.75V42.6667Z" fill="#0E0E0E"/>
</svg>
